<?xml version="1.0" encoding="utf-8" ?>
<svg xmlns="http://www.w3.org/2000/svg" xmlns:xlink="http://www.w3.org/1999/xlink" width="32" height="32" viewBox="0 0 32 32">
	<defs>
		<clipPath id="clipPath2501813069">
			<path transform="matrix(1 0 0 1 0 0)" d="M0 0L32 0L32 32L0 32L0 0Z" fill-rule="nonzero"/>
		</clipPath>
	</defs>
	<g clip-path="url(#clipPath2501813069)">
		<path transform="matrix(1 0 0 1 0 0)" d="M16 5Q13.7624 5 11.7198 5.86431Q9.746 6.69947 8.22273 8.22273Q6.69946 9.746 5.86431 11.7198Q5 13.7624 5 16Q5 18.2376 5.86431 20.2802Q6.69946 22.254 8.22273 23.7773Q9.74599 25.3005 11.7198 26.1357Q13.7624 27 16 27Q18.2376 27 20.2802 26.1357Q22.254 25.3005 23.7773 23.7773Q25.3005 22.254 26.1357 20.2802Q27 18.2376 27 16Q27 13.7624 26.1357 11.7198Q25.3005 9.746 23.7773 8.22273Q22.254 6.69946 20.2802 5.86431Q18.2376 5 16 5L16 3Q18.6433 3 21.0596 4.02241Q23.3925 5.00952 25.1915 6.80852Q26.9905 8.60751 27.9776 10.9404Q29 13.3567 29 16Q29 18.6433 27.9776 21.0596Q26.9905 23.3925 25.1915 25.1915Q23.3925 26.9905 21.0596 27.9776Q18.6433 29 16 29Q13.3567 29 10.9404 27.9776Q8.60751 26.9905 6.80852 25.1915Q5.00952 23.3925 4.02241 21.0596Q3 18.6433 3 16Q3 13.3567 4.02241 10.9404Q5.00952 8.60752 6.80852 6.80852Q8.60752 5.00952 10.9404 4.02241Q13.3567 3 16 3L16 5Z" fill-rule="nonzero" fill="rgb(67, 24, 255)"/>
		<path transform="matrix(1 0 0 1 0 0)" d="M16 7C15.4477 7 15 7.44772 15 8L15 17Q15 17.0985 15.0192 17.1951Q15.0384 17.2917 15.0761 17.3827Q15.1138 17.4737 15.1685 17.5556Q15.2232 17.6375 15.2929 17.7071Q15.3625 17.7767 15.4444 17.8315Q15.5263 17.8862 15.6173 17.9239Q15.7083 17.9616 15.8049 17.9808Q15.9015 18 16 18L22 18C22.5523 18 23 17.5523 23 17C23 16.4477 22.5523 16 22 16L17 16L17 8C17 7.44772 16.5523 7 16 7Z" fill-rule="evenodd" fill="rgb(67, 24, 255)"/>
	</g>
</svg>
