<?xml version="1.0" encoding="utf-8" ?>
<svg xmlns="http://www.w3.org/2000/svg" xmlns:xlink="http://www.w3.org/1999/xlink" width="28" height="32" viewBox="0 0 28 32">
	<path transform="matrix(1 0 0 1 -2 0)" d="M10 9.25L10 6.75C10 6.3375 10.3375 6 10.75 6L13.25 6C13.6625 6 14 6.3375 14 6.75L14 9.25C14 9.6625 13.6625 10 13.25 10L10.75 10C10.3375 10 10 9.6625 10 9.25M18.75 10L21.25 10C21.6625 10 22 9.6625 22 9.25L22 6.75C22 6.3375 21.6625 6 21.25 6L18.75 6C18.3375 6 18 6.3375 18 6.75L18 9.25C18 9.6625 18.3375 10 18.75 10M10.75 16L13.25 16C13.6625 16 14 15.6625 14 15.25L14 12.75C14 12.3375 13.6625 12 13.25 12L10.75 12C10.3375 12 10 12.3375 10 12.75L10 15.25C10 15.6625 10.3375 16 10.75 16M18.75 16L21.25 16C21.6625 16 22 15.6625 22 15.25L22 12.75C22 12.3375 21.6625 12 21.25 12L18.75 12C18.3375 12 18 12.3375 18 12.75L18 15.25C18 15.6625 18.3375 16 18.75 16M14 21.25L14 18.75C14 18.3375 13.6625 18 13.25 18L10.75 18C10.3375 18 10 18.3375 10 18.75L10 21.25C10 21.6625 10.3375 22 10.75 22L13.25 22C13.6625 22 14 21.6625 14 21.25M18.75 22L21.25 22C21.6625 22 22 21.6625 22 21.25L22 18.75C22 18.3375 21.6625 18 21.25 18L18.75 18C18.3375 18 18 18.3375 18 18.75L18 21.25C18 21.6625 18.3375 22 18.75 22M30 29.75L30 32L2 32L2 29.75C2 29.3375 2.3375 29 2.75 29L3.96875 29L3.96875 1.5C3.96875 0.66875 4.6375 0 5.46875 0L26.5312 0C27.3625 0 28.0312 0.66875 28.0312 1.5L28.0312 29L29.25 29C29.6625 29 30 29.3375 30 29.75M6.96875 28.9375L14 28.9375L14 24.75C14 24.3375 14.3375 24 14.75 24L17.25 24C17.6625 24 18 24.3375 18 24.75L18 28.9375L25.0312 28.9375L25.0312 3.0625L7 3L6.96875 28.9375" fill-rule="nonzero" fill="rgb(255, 255, 255)"/>
</svg>
