<?xml version="1.0" encoding="utf-8" ?>
<svg xmlns="http://www.w3.org/2000/svg" xmlns:xlink="http://www.w3.org/1999/xlink" width="29.8899" height="32" viewBox="0 0 29.8899 32">
	<defs>
		<clipPath id="clipPath6534605429">
			<path transform="matrix(1 0 0 1 0 0)" d="M0 0L29.89 0L29.89 32L0 32L0 0Z" fill-rule="nonzero"/>
		</clipPath>
	</defs>
	<g clip-path="url(#clipPath6534605429)">
		<path transform="matrix(1 0 0 1 0 0)" d="M18.9091 10.7184C19.2467 10.3283 19.8366 10.2858 20.2266 10.6235C20.6167 10.9611 20.6592 11.551 20.3215 11.941L13.8532 19.4135Q13.7316 19.554 13.5655 19.6372Q13.3994 19.7205 13.214 19.7338Q13.0287 19.7472 12.8524 19.6886Q12.6761 19.63 12.5356 19.5084Q12.5138 19.4896 12.4933 19.4694L9.62102 16.6556C9.25253 16.2945 9.24645 15.7032 9.60746 15.3347C9.96847 14.9662 10.5599 14.9601 10.9284 15.3211L13.0909 17.4397L18.9091 10.7184Z" fill-rule="evenodd" fill="rgb(67, 24, 255)"/>
		<path transform="matrix(1 0 0 1 0 0)" d="M27.931 7.3495C27.9526 7.42218 27.9655 7.4981 27.9687 7.5758Q28.3035 12.9412 26.5414 17.4361Q25.1087 21.0905 22.3621 24.0046Q20.3578 26.1312 17.8371 27.6854Q16.4356 28.5495 15.2939 29.0093Q15.126 29.0769 14.945 29.0769Q14.764 29.0769 14.5961 29.0093Q13.4544 28.5495 12.0529 27.6854Q9.53221 26.1312 7.52791 24.0046Q4.78128 21.0905 3.34863 17.4361Q1.58328 12.933 1.92252 7.55622Q1.92742 7.47853 1.94511 7.40273Q1.96281 7.32693 1.9928 7.2551Q2.0228 7.18327 2.06427 7.1174Q2.10574 7.05152 2.15754 6.99342Q2.20935 6.93532 2.27005 6.8866Q2.33076 6.83787 2.39869 6.79987Q2.46662 6.76186 2.53991 6.73563Q2.61319 6.70939 2.68981 6.69565Q4.69063 6.33675 6.07619 6.02131Q7.54818 5.6862 8.81201 5.29136Q10.0623 4.90075 11.4551 4.34322Q12.7252 3.83477 14.5605 3.00591Q14.6512 2.96499 14.7484 2.94406Q14.8456 2.92312 14.945 2.92312Q15.0444 2.92312 15.1416 2.94406Q15.2388 2.96499 15.3295 3.00591Q17.1647 3.83476 18.4349 4.34322Q19.8277 4.90076 21.078 5.29136Q22.3418 5.68619 23.8138 6.02131Q25.1928 6.33525 27.1812 6.69225C27.2572 6.70419 27.3303 6.72537 27.3994 6.75465C27.6529 6.86215 27.8511 7.07894 27.931 7.3495ZM26.1388 8.40086Q24.564 8.10803 23.3991 7.84283Q21.8552 7.49134 20.5209 7.0745Q19.2011 6.66216 17.7407 6.07755Q16.5692 5.60862 14.945 4.88136Q13.3207 5.60863 12.1493 6.07755Q10.6889 6.66216 9.36908 7.0745Q8.03483 7.49133 6.49087 7.84283Q5.32594 8.10804 3.75125 8.40086Q3.59276 12.9404 5.08788 16.7542Q6.38862 20.0722 8.88737 22.7233Q10.7225 24.6704 13.0333 26.0952Q14.0825 26.7421 14.945 27.1279Q15.8075 26.7421 16.8567 26.0952Q19.1675 24.6704 21.0026 22.7233Q23.5014 20.0722 24.8021 16.7542Q26.2972 12.9404 26.1388 8.40086Z" fill-rule="evenodd" fill="rgb(67, 24, 255)"/>
	</g>
</svg>
